<svg width="434" height="200" viewBox="0 0 434 200" fill="none" xmlns="http://www.w3.org/2000/svg">
<circle cx="100" cy="100" r="95" stroke="url(#paint0_linear_3:19)" stroke-width="10"/>
<path d="M227.217 76.3438L241.162 111.148L255.107 76.3438H262.402V119H256.777V102.389L257.305 84.459L243.301 119H238.994L225.02 84.5469L225.576 102.389V119H219.951V76.3438H227.217ZM284.639 119.586C280.342 119.586 276.846 118.18 274.15 115.367C271.455 112.535 270.107 108.756 270.107 104.029V103.033C270.107 99.8887 270.703 97.0859 271.895 94.625C273.105 92.1445 274.785 90.2109 276.934 88.8242C279.102 87.418 281.445 86.7148 283.965 86.7148C288.086 86.7148 291.289 88.0723 293.574 90.7871C295.859 93.502 297.002 97.3887 297.002 102.447V104.703H275.527C275.605 107.828 276.514 110.357 278.252 112.291C280.01 114.205 282.236 115.162 284.932 115.162C286.846 115.162 288.467 114.771 289.795 113.99C291.123 113.209 292.285 112.174 293.281 110.885L296.592 113.463C293.936 117.545 289.951 119.586 284.639 119.586ZM283.965 91.168C281.777 91.168 279.941 91.9688 278.457 93.5703C276.973 95.1523 276.055 97.3789 275.703 100.25H291.582V99.8398C291.426 97.0859 290.684 94.957 289.355 93.4531C288.027 91.9297 286.23 91.168 283.965 91.168ZM333.623 80.9727H319.912V119H314.316V80.9727H300.635V76.3438H333.623V80.9727ZM355.859 115.865C353.75 118.346 350.654 119.586 346.572 119.586C343.193 119.586 340.615 118.609 338.838 116.656C337.08 114.684 336.191 111.773 336.172 107.926V87.3008H341.592V107.779C341.592 112.584 343.545 114.986 347.451 114.986C351.592 114.986 354.346 113.443 355.713 110.357V87.3008H361.133V119H355.977L355.859 115.865ZM396.23 103.502C396.23 108.346 395.117 112.242 392.891 115.191C390.664 118.121 387.676 119.586 383.926 119.586C379.922 119.586 376.826 118.17 374.639 115.338L374.375 119H369.395V74H374.814V90.7871C377.002 88.0723 380.02 86.7148 383.867 86.7148C387.715 86.7148 390.732 88.1699 392.92 91.0801C395.127 93.9902 396.23 97.9746 396.23 103.033V103.502ZM390.811 102.887C390.811 99.1953 390.098 96.3438 388.672 94.332C387.246 92.3203 385.195 91.3145 382.52 91.3145C378.945 91.3145 376.377 92.9746 374.814 96.2949V110.006C376.475 113.326 379.062 114.986 382.578 114.986C385.176 114.986 387.197 113.98 388.643 111.969C390.088 109.957 390.811 106.93 390.811 102.887ZM416.24 119.586C411.943 119.586 408.447 118.18 405.752 115.367C403.057 112.535 401.709 108.756 401.709 104.029V103.033C401.709 99.8887 402.305 97.0859 403.496 94.625C404.707 92.1445 406.387 90.2109 408.535 88.8242C410.703 87.418 413.047 86.7148 415.566 86.7148C419.688 86.7148 422.891 88.0723 425.176 90.7871C427.461 93.502 428.604 97.3887 428.604 102.447V104.703H407.129C407.207 107.828 408.115 110.357 409.854 112.291C411.611 114.205 413.838 115.162 416.533 115.162C418.447 115.162 420.068 114.771 421.396 113.99C422.725 113.209 423.887 112.174 424.883 110.885L428.193 113.463C425.537 117.545 421.553 119.586 416.24 119.586ZM415.566 91.168C413.379 91.168 411.543 91.9688 410.059 93.5703C408.574 95.1523 407.656 97.3789 407.305 100.25H423.184V99.8398C423.027 97.0859 422.285 94.957 420.957 93.4531C419.629 91.9297 417.832 91.168 415.566 91.168Z" fill="black"/>
<mask id="mask0_3:19" style="mask-type:alpha" maskUnits="userSpaceOnUse" x="49" y="38" width="119" height="125">
<line x1="84" y1="55" x2="84" y2="145" stroke="black" stroke-width="10" stroke-linecap="round"/>
<line x1="114" y1="68" x2="114" y2="133" stroke="black" stroke-width="10" stroke-linecap="round"/>
<line x1="139" y1="80" x2="139" y2="120" stroke="black" stroke-width="10" stroke-linecap="round"/>
<line x1="163" y1="93" x2="163" y2="108" stroke="black" stroke-width="10" stroke-linecap="round"/>
<line x1="54" y1="43" x2="54" y2="158" stroke="black" stroke-width="10" stroke-linecap="round"/>
</mask>
<g mask="url(#mask0_3:19)">
<rect x="34" y="38" width="134" height="125" fill="url(#paint1_linear_3:19)"/>
</g>
<defs>
<linearGradient id="paint0_linear_3:19" x1="100" y1="0" x2="100" y2="200" gradientUnits="userSpaceOnUse">
<stop stop-color="#1762A7"/>
<stop offset="1" stop-color="#BC3A80"/>
</linearGradient>
<linearGradient id="paint1_linear_3:19" x1="101" y1="38" x2="101" y2="163" gradientUnits="userSpaceOnUse">
<stop stop-color="#1762A7"/>
<stop offset="1" stop-color="#BC3A80"/>
</linearGradient>
</defs>
</svg>
